<?xml version="1.0" encoding="utf-8"?>
<!-- Generator: Adobe Illustrator 16.0.0, SVG Export Plug-In . SVG Version: 6.00 Build 0)  -->
<!DOCTYPE svg PUBLIC "-//W3C//DTD SVG 1.1//EN" "http://www.w3.org/Graphics/SVG/1.1/DTD/svg11.dtd">
<svg version="1.1" xmlns="http://www.w3.org/2000/svg" xmlns:xlink="http://www.w3.org/1999/xlink" x="0px" y="0px" width="5000px"
	 height="5000px" viewBox="0 0 5000 5000" enable-background="new 0 0 5000 5000" xml:space="preserve">
<g id="land">
	<rect fill="#4498B2" stroke="#000000" stroke-miterlimit="10" width="5000" height="5000"/>
	<g>
		<line fill="none" stroke="#B0AFB0" stroke-width="3" stroke-miterlimit="10" x1="100" y1="0" x2="100" y2="5000"/>
		<line fill="none" stroke="#B0AFB0" stroke-width="3" stroke-miterlimit="10" x1="200" y1="0" x2="200" y2="5000"/>
		<line fill="none" stroke="#B0AFB0" stroke-width="3" stroke-miterlimit="10" x1="300" y1="0" x2="300" y2="5000"/>
		<line fill="none" stroke="#B0AFB0" stroke-width="3" stroke-miterlimit="10" x1="400" y1="0" x2="400" y2="5000"/>
		<line fill="none" stroke="#B0AFB0" stroke-width="3" stroke-miterlimit="10" x1="500" y1="0" x2="500" y2="5000"/>
		<line fill="none" stroke="#B0AFB0" stroke-width="3" stroke-miterlimit="10" x1="600" y1="0" x2="600" y2="5000"/>
		<line fill="none" stroke="#B0AFB0" stroke-width="3" stroke-miterlimit="10" x1="700" y1="0" x2="700" y2="5000"/>
		<line fill="none" stroke="#B0AFB0" stroke-width="3" stroke-miterlimit="10" x1="800" y1="0" x2="800" y2="5000"/>
		<line fill="none" stroke="#B0AFB0" stroke-width="3" stroke-miterlimit="10" x1="900" y1="0" x2="900" y2="5000"/>
		<line fill="none" stroke="#B0AFB0" stroke-width="3" stroke-miterlimit="10" x1="1000" y1="0" x2="1000" y2="5000"/>
		<line fill="none" stroke="#B0AFB0" stroke-width="3" stroke-miterlimit="10" x1="1100" y1="0" x2="1100" y2="5000"/>
		<line fill="none" stroke="#B0AFB0" stroke-width="3" stroke-miterlimit="10" x1="1200" y1="0" x2="1200" y2="5000"/>
		<line fill="none" stroke="#B0AFB0" stroke-width="3" stroke-miterlimit="10" x1="1300" y1="0" x2="1300" y2="5000"/>
		<line fill="none" stroke="#B0AFB0" stroke-width="3" stroke-miterlimit="10" x1="1400" y1="0" x2="1400" y2="5000"/>
		<line fill="none" stroke="#B0AFB0" stroke-width="3" stroke-miterlimit="10" x1="1500" y1="0" x2="1500" y2="5000"/>
		<line fill="none" stroke="#B0AFB0" stroke-width="3" stroke-miterlimit="10" x1="1600" y1="0" x2="1600" y2="5000"/>
		<line fill="none" stroke="#B0AFB0" stroke-width="3" stroke-miterlimit="10" x1="1700" y1="0" x2="1700" y2="5000"/>
		<line fill="none" stroke="#B0AFB0" stroke-width="3" stroke-miterlimit="10" x1="1800" y1="0" x2="1800" y2="5000"/>
		<line fill="none" stroke="#B0AFB0" stroke-width="3" stroke-miterlimit="10" x1="1900" y1="0" x2="1900" y2="5000"/>
		<line fill="none" stroke="#B0AFB0" stroke-width="3" stroke-miterlimit="10" x1="2000" y1="0" x2="2000" y2="5000"/>
		<line fill="none" stroke="#B0AFB0" stroke-width="3" stroke-miterlimit="10" x1="2100" y1="0" x2="2100" y2="5000"/>
		<line fill="none" stroke="#B0AFB0" stroke-width="3" stroke-miterlimit="10" x1="2200" y1="0" x2="2200" y2="5000"/>
		<line fill="none" stroke="#B0AFB0" stroke-width="3" stroke-miterlimit="10" x1="2300" y1="0" x2="2300" y2="5000"/>
		<line fill="none" stroke="#B0AFB0" stroke-width="3" stroke-miterlimit="10" x1="2400" y1="0" x2="2400" y2="5000"/>
		<line fill="none" stroke="#B0AFB0" stroke-width="3" stroke-miterlimit="10" x1="2500" y1="0" x2="2500" y2="5000"/>
		<line fill="none" stroke="#B0AFB0" stroke-width="3" stroke-miterlimit="10" x1="2600" y1="0" x2="2600" y2="5000"/>
		<line fill="none" stroke="#B0AFB0" stroke-width="3" stroke-miterlimit="10" x1="2700" y1="0" x2="2700" y2="5000"/>
		<line fill="none" stroke="#B0AFB0" stroke-width="3" stroke-miterlimit="10" x1="2800" y1="0" x2="2800" y2="5000"/>
		<line fill="none" stroke="#B0AFB0" stroke-width="3" stroke-miterlimit="10" x1="2900" y1="0" x2="2900" y2="5000"/>
		<line fill="none" stroke="#B0AFB0" stroke-width="3" stroke-miterlimit="10" x1="3000" y1="0" x2="3000" y2="5000"/>
		<line fill="none" stroke="#B0AFB0" stroke-width="3" stroke-miterlimit="10" x1="3100" y1="0" x2="3100" y2="5000"/>
		<line fill="none" stroke="#B0AFB0" stroke-width="3" stroke-miterlimit="10" x1="3200" y1="0" x2="3200" y2="5000"/>
		<line fill="none" stroke="#B0AFB0" stroke-width="3" stroke-miterlimit="10" x1="3300" y1="0" x2="3300" y2="5000"/>
		<line fill="none" stroke="#B0AFB0" stroke-width="3" stroke-miterlimit="10" x1="3400" y1="0" x2="3400" y2="5000"/>
		<line fill="none" stroke="#B0AFB0" stroke-width="3" stroke-miterlimit="10" x1="3500" y1="0" x2="3500" y2="5000"/>
		<line fill="none" stroke="#B0AFB0" stroke-width="3" stroke-miterlimit="10" x1="3600" y1="0" x2="3600" y2="5000"/>
		<line fill="none" stroke="#B0AFB0" stroke-width="3" stroke-miterlimit="10" x1="3700" y1="0" x2="3700" y2="5000"/>
		<line fill="none" stroke="#B0AFB0" stroke-width="3" stroke-miterlimit="10" x1="3800" y1="0" x2="3800" y2="5000"/>
		<line fill="none" stroke="#B0AFB0" stroke-width="3" stroke-miterlimit="10" x1="3900" y1="0" x2="3900" y2="5000"/>
		<line fill="none" stroke="#B0AFB0" stroke-width="3" stroke-miterlimit="10" x1="4000" y1="0" x2="4000" y2="5000"/>
		<line fill="none" stroke="#B0AFB0" stroke-width="3" stroke-miterlimit="10" x1="4100" y1="0" x2="4100" y2="5000"/>
		<line fill="none" stroke="#B0AFB0" stroke-width="3" stroke-miterlimit="10" x1="4200" y1="0" x2="4200" y2="5000"/>
		<line fill="none" stroke="#B0AFB0" stroke-width="3" stroke-miterlimit="10" x1="4300" y1="0" x2="4300" y2="5000"/>
		<line fill="none" stroke="#B0AFB0" stroke-width="3" stroke-miterlimit="10" x1="4400" y1="0" x2="4400" y2="5000"/>
		<line fill="none" stroke="#B0AFB0" stroke-width="3" stroke-miterlimit="10" x1="4500" y1="0" x2="4500" y2="5000"/>
		<line fill="none" stroke="#B0AFB0" stroke-width="3" stroke-miterlimit="10" x1="4600" y1="0" x2="4600" y2="5000"/>
		<line fill="none" stroke="#B0AFB0" stroke-width="3" stroke-miterlimit="10" x1="4700" y1="0" x2="4700" y2="5000"/>
		<line fill="none" stroke="#B0AFB0" stroke-width="3" stroke-miterlimit="10" x1="4800" y1="0" x2="4800" y2="5000"/>
		<line fill="none" stroke="#B0AFB0" stroke-width="3" stroke-miterlimit="10" x1="4900" y1="0" x2="4900" y2="5000"/>
		<line fill="none" stroke="#B0AFB0" stroke-width="3" stroke-miterlimit="10" x1="5000" y1="0" x2="5000" y2="5000"/>
		<line fill="none" stroke="#B0AFB0" stroke-width="3" stroke-miterlimit="10" x1="0" y1="0" x2="5000" y2="0"/>
		<line fill="none" stroke="#B0AFB0" stroke-width="3" stroke-miterlimit="10" x1="0" y1="100" x2="5000" y2="100"/>
		<line fill="none" stroke="#B0AFB0" stroke-width="3" stroke-miterlimit="10" x1="0" y1="200" x2="5000" y2="200"/>
		<line fill="none" stroke="#B0AFB0" stroke-width="3" stroke-miterlimit="10" x1="0" y1="300" x2="5000" y2="300"/>
		<line fill="none" stroke="#B0AFB0" stroke-width="3" stroke-miterlimit="10" x1="0" y1="400" x2="5000" y2="400"/>
		<line fill="none" stroke="#B0AFB0" stroke-width="3" stroke-miterlimit="10" x1="0" y1="500" x2="5000" y2="500"/>
		<line fill="none" stroke="#B0AFB0" stroke-width="3" stroke-miterlimit="10" x1="0" y1="600" x2="5000" y2="600"/>
		<line fill="none" stroke="#B0AFB0" stroke-width="3" stroke-miterlimit="10" x1="0" y1="700" x2="5000" y2="700"/>
		<line fill="none" stroke="#B0AFB0" stroke-width="3" stroke-miterlimit="10" x1="0" y1="800" x2="5000" y2="800"/>
		<line fill="none" stroke="#B0AFB0" stroke-width="3" stroke-miterlimit="10" x1="0" y1="900" x2="5000" y2="900"/>
		<line fill="none" stroke="#B0AFB0" stroke-width="3" stroke-miterlimit="10" x1="0" y1="1000" x2="5000" y2="1000"/>
		<line fill="none" stroke="#B0AFB0" stroke-width="3" stroke-miterlimit="10" x1="0" y1="1100" x2="5000" y2="1100"/>
		<line fill="none" stroke="#B0AFB0" stroke-width="3" stroke-miterlimit="10" x1="0" y1="1200" x2="5000" y2="1200"/>
		<line fill="none" stroke="#B0AFB0" stroke-width="3" stroke-miterlimit="10" x1="0" y1="1300" x2="5000" y2="1300"/>
		<line fill="none" stroke="#B0AFB0" stroke-width="3" stroke-miterlimit="10" x1="0" y1="1400" x2="5000" y2="1400"/>
		<line fill="none" stroke="#B0AFB0" stroke-width="3" stroke-miterlimit="10" x1="0" y1="1500" x2="5000" y2="1500"/>
		<line fill="none" stroke="#B0AFB0" stroke-width="3" stroke-miterlimit="10" x1="0" y1="1600" x2="5000" y2="1600"/>
		<line fill="none" stroke="#B0AFB0" stroke-width="3" stroke-miterlimit="10" x1="0" y1="1700" x2="5000" y2="1700"/>
		<line fill="none" stroke="#B0AFB0" stroke-width="3" stroke-miterlimit="10" x1="0" y1="1800" x2="5000" y2="1800"/>
		<line fill="none" stroke="#B0AFB0" stroke-width="3" stroke-miterlimit="10" x1="0" y1="1900" x2="5000" y2="1900"/>
		<line fill="none" stroke="#B0AFB0" stroke-width="3" stroke-miterlimit="10" x1="0" y1="2000" x2="5000" y2="2000"/>
		<line fill="none" stroke="#B0AFB0" stroke-width="3" stroke-miterlimit="10" x1="0" y1="2100" x2="5000" y2="2100"/>
		<line fill="none" stroke="#B0AFB0" stroke-width="3" stroke-miterlimit="10" x1="0" y1="2200" x2="5000" y2="2200"/>
		<line fill="none" stroke="#B0AFB0" stroke-width="3" stroke-miterlimit="10" x1="0" y1="2300" x2="5000" y2="2300"/>
		<line fill="none" stroke="#B0AFB0" stroke-width="3" stroke-miterlimit="10" x1="0" y1="2400" x2="5000" y2="2400"/>
		<line fill="none" stroke="#B0AFB0" stroke-width="3" stroke-miterlimit="10" x1="0" y1="2500" x2="5000" y2="2500"/>
		<line fill="none" stroke="#B0AFB0" stroke-width="3" stroke-miterlimit="10" x1="0" y1="2600" x2="5000" y2="2600"/>
		<line fill="none" stroke="#B0AFB0" stroke-width="3" stroke-miterlimit="10" x1="0" y1="2700" x2="5000" y2="2700"/>
		<line fill="none" stroke="#B0AFB0" stroke-width="3" stroke-miterlimit="10" x1="0" y1="2800" x2="5000" y2="2800"/>
		<line fill="none" stroke="#B0AFB0" stroke-width="3" stroke-miterlimit="10" x1="0" y1="2900" x2="5000" y2="2900"/>
		<line fill="none" stroke="#B0AFB0" stroke-width="3" stroke-miterlimit="10" x1="0" y1="3000" x2="5000" y2="3000"/>
		<line fill="none" stroke="#B0AFB0" stroke-width="3" stroke-miterlimit="10" x1="0" y1="3100" x2="5000" y2="3100"/>
		<line fill="none" stroke="#B0AFB0" stroke-width="3" stroke-miterlimit="10" x1="0" y1="3200" x2="5000" y2="3200"/>
		<line fill="none" stroke="#B0AFB0" stroke-width="3" stroke-miterlimit="10" x1="0" y1="3300" x2="5000" y2="3300"/>
		<line fill="none" stroke="#B0AFB0" stroke-width="3" stroke-miterlimit="10" x1="0" y1="3400" x2="5000" y2="3400"/>
		<line fill="none" stroke="#B0AFB0" stroke-width="3" stroke-miterlimit="10" x1="0" y1="3500" x2="5000" y2="3500"/>
		<line fill="none" stroke="#B0AFB0" stroke-width="3" stroke-miterlimit="10" x1="0" y1="3600" x2="5000" y2="3600"/>
		<line fill="none" stroke="#B0AFB0" stroke-width="3" stroke-miterlimit="10" x1="0" y1="3700" x2="5000" y2="3700"/>
		<line fill="none" stroke="#B0AFB0" stroke-width="3" stroke-miterlimit="10" x1="0" y1="3800" x2="5000" y2="3800"/>
		<line fill="none" stroke="#B0AFB0" stroke-width="3" stroke-miterlimit="10" x1="0" y1="3900" x2="5000" y2="3900"/>
		<line fill="none" stroke="#B0AFB0" stroke-width="3" stroke-miterlimit="10" x1="0" y1="4000" x2="5000" y2="4000"/>
		<line fill="none" stroke="#B0AFB0" stroke-width="3" stroke-miterlimit="10" x1="0" y1="4100" x2="5000" y2="4100"/>
		<line fill="none" stroke="#B0AFB0" stroke-width="3" stroke-miterlimit="10" x1="0" y1="4200" x2="5000" y2="4200"/>
		<line fill="none" stroke="#B0AFB0" stroke-width="3" stroke-miterlimit="10" x1="0" y1="4300" x2="5000" y2="4300"/>
		<line fill="none" stroke="#B0AFB0" stroke-width="3" stroke-miterlimit="10" x1="0" y1="4400" x2="5000" y2="4400"/>
		<line fill="none" stroke="#B0AFB0" stroke-width="3" stroke-miterlimit="10" x1="0" y1="4500" x2="5000" y2="4500"/>
		<line fill="none" stroke="#B0AFB0" stroke-width="3" stroke-miterlimit="10" x1="0" y1="4600" x2="5000" y2="4600"/>
		<line fill="none" stroke="#B0AFB0" stroke-width="3" stroke-miterlimit="10" x1="0" y1="4700" x2="5000" y2="4700"/>
		<line fill="none" stroke="#B0AFB0" stroke-width="3" stroke-miterlimit="10" x1="0" y1="4800" x2="5000" y2="4800"/>
		<line fill="none" stroke="#B0AFB0" stroke-width="3" stroke-miterlimit="10" x1="0" y1="4900" x2="5000" y2="4900"/>
		<line fill="none" stroke="#B0AFB0" stroke-width="3" stroke-miterlimit="10" x1="0" y1="5000" x2="5000" y2="5000"/>
		<line fill="none" stroke="#B0AFB0" stroke-width="3" stroke-miterlimit="10" x1="0" y1="0" x2="0" y2="5000"/>
	</g>
</g>
<g id="load">
	<rect x="1516" y="1706" fill="#BEE6F3" stroke="#000000" stroke-miterlimit="10" width="824" height="100"/>
	<rect x="1688" y="450" fill="#BEE6F3" stroke="#000000" stroke-miterlimit="10" width="824" height="100"/>
	<rect x="2553" y="3750" fill="#BEE6F3" stroke="#000000" stroke-miterlimit="10" width="824" height="100"/>
	<rect x="2788" y="2050" fill="#BEE6F3" stroke="#000000" stroke-miterlimit="10" width="824" height="100"/>
	<rect x="588" y="3600" fill="#BEE6F3" stroke="#000000" stroke-miterlimit="10" width="824" height="100"/>
	<rect x="3040" y="1150" fill="#BEE6F3" stroke="#000000" stroke-miterlimit="10" width="824" height="100"/>
	<rect x="576" y="750" fill="#BEE6F3" stroke="#000000" stroke-miterlimit="10" width="824" height="100"/>
	<rect x="3333" y="3250" fill="#BEE6F3" stroke="#000000" stroke-miterlimit="10" width="824" height="100"/>
	<rect x="576" y="2250" fill="#BEE6F3" stroke="#000000" stroke-miterlimit="10" width="824" height="100"/>
	<rect x="1000" y="4250" fill="#BEE6F3" stroke="#000000" stroke-miterlimit="10" width="824" height="100"/>
	<rect x="3288" y="4300" fill="#BEE6F3" stroke="#000000" stroke-miterlimit="10" width="824" height="100"/>
	<rect x="1876" y="2839" fill="#BEE6F3" stroke="#000000" stroke-miterlimit="10" width="824" height="100"/>
	<rect x="3864" y="1550" fill="#BEE6F3" stroke="#000000" stroke-miterlimit="10" width="824" height="100"/>
	<rect x="3700" y="2550" fill="#BEE6F3" stroke="#000000" stroke-miterlimit="10" width="824" height="100"/>
</g>
</svg>
